<?xml version="1.0" encoding="utf-8"?>
<!-- Generator: Adobe Illustrator 23.0.1, SVG Export Plug-In . SVG Version: 6.00 Build 0)  -->
<svg version="1.2" baseProfile="tiny" id="Layer_1" xmlns="http://www.w3.org/2000/svg" xmlns:xlink="http://www.w3.org/1999/xlink"
	 x="0px" y="0px" viewBox="0 0 100 100" xml:space="preserve">
<path fill="#8F9EB6" d="M65,85c2.8,0,5-2.2,5-5s-2.2-5-5-5c-2.8,0-5,2.2-5,5S62.2,85,65,85z"/>
<path fill="#8F9EB6" d="M37,85c2.8,0,5-2.2,5-5s-2.2-5-5-5s-5,2.2-5,5S34.2,85,37,85z"/>
<path fill="#FEF6AA" d="M66.5,73.5v7c0,0-6,0-6-7"/>
<path fill="#FEF6AA" d="M38.5,73.5v7c0,0-6,0-6-7"/>
<path fill="#1F212B" d="M30,74h44c0.6,0,1-0.4,1-1v-1.5c0-4.2-2.9-7.8-6.9-8.8c-0.5-0.1-1.1,0.2-1.2,0.7c-0.1,0.5,0.2,1.1,0.7,1.2
	c3.2,0.7,5.4,3.5,5.4,6.8V72H30c-0.6,0-1,0.4-1,1S29.4,74,30,74z"/>
<path fill="#1F212B" d="M66.5,81c0.3,0,0.5-0.2,0.5-0.5v-7c0-0.3-0.2-0.5-0.5-0.5S66,73.2,66,73.5V80c-1.4-0.2-5-1.1-5-6.5
	c0-0.3-0.2-0.5-0.5-0.5S60,73.2,60,73.5C60,80.9,66.4,81,66.5,81z"/>
<path fill="#1F212B" d="M65,85c2.8,0,5-2.2,5-5c0-2.1-1.3-4-3.3-4.7c-0.3-0.1-0.5,0-0.6,0.3c-0.1,0.3,0,0.5,0.3,0.6
	c1.6,0.6,2.7,2.1,2.7,3.8c0,2.2-1.8,4-4,4s-4-1.8-4-4c0-0.8,0.3-1.6,0.8-2.3c0.2-0.2,0.1-0.5-0.1-0.7c-0.2-0.2-0.5-0.1-0.7,0.1
	c-0.6,0.9-1,1.9-1,2.9C60,82.8,62.2,85,65,85z"/>
<path fill="#1F212B" d="M38.5,81c0.3,0,0.5-0.2,0.5-0.5v-7c0-0.3-0.2-0.5-0.5-0.5S38,73.2,38,73.5V80c-1.4-0.2-5-1.1-5-6.5
	c0-0.3-0.2-0.5-0.5-0.5S32,73.2,32,73.5C32,80.9,38.4,81,38.5,81z"/>
<path fill="#1F212B" d="M37,85c2.8,0,5-2.2,5-5c0-2.1-1.3-4-3.3-4.7c-0.3-0.1-0.5,0-0.6,0.3c-0.1,0.3,0,0.5,0.3,0.6
	c1.6,0.6,2.7,2.1,2.7,3.8c0,2.2-1.8,4-4,4s-4-1.8-4-4c0-0.8,0.3-1.6,0.8-2.3c0.2-0.2,0.1-0.5-0.1-0.7c-0.2-0.2-0.5-0.1-0.7,0.1
	c-0.6,0.9-1,1.9-1,2.9C32,82.8,34.2,85,37,85z"/>
<polygon fill="#A0D2A1" points="27,61 73,64 77,33 21,33 "/>
<path fill="#1F212B" d="M73,65c0.5,0,0.9-0.4,1-0.9l4-31c0-0.3-0.1-0.6-0.2-0.8S77.3,32,77,32H21c-0.3,0-0.6,0.1-0.8,0.4
	C20,32.6,20,32.9,20,33.2l6,28c0.1,0.4,0.5,0.8,0.9,0.8L73,65C73,65,73,65,73,65z M75.9,34l-3.7,28.9l-44.3-2.9L22.2,34H75.9z"/>
<path fill="#1F212B" d="M68.5,41h4c0.3,0,0.5-0.2,0.5-0.5S72.8,40,72.5,40h-4c-0.3,0-0.5,0.2-0.5,0.5S68.2,41,68.5,41z"/>
<path fill="#1F212B" d="M22.6,41h42.9c0.3,0,0.5-0.2,0.5-0.5S65.8,40,65.5,40H22.6c-0.3,0-0.5,0.2-0.5,0.5S22.4,41,22.6,41z"/>
<path fill="#1F212B" d="M23.7,46h51.7c0.3,0,0.5-0.2,0.5-0.5S75.7,45,75.4,45H23.7c-0.3,0-0.5,0.2-0.5,0.5S23.4,46,23.7,46z"/>
<path fill="#1F212B" d="M24.8,51h50c0.3,0,0.5-0.2,0.5-0.5S75,50,74.7,50h-50c-0.3,0-0.5,0.2-0.5,0.5S24.5,51,24.8,51z"/>
<path fill="#1F212B" d="M39.5,57H74c0.3,0,0.5-0.2,0.5-0.5S74.2,56,74,56H39.5c-0.3,0-0.5,0.2-0.5,0.5S39.2,57,39.5,57z"/>
<path fill="#8F9EB6" d="M82.5,19.5H88c0.8,0,1.5-0.7,1.5-1.5v-1c0-0.8-0.7-1.5-1.5-1.5h-5.5V19.5z"/>
<path fill="#1F212B" d="M82.5,20H88c1.1,0,2-0.9,2-2v-1c0-1.1-0.9-2-2-2h-5.5c-0.3,0-0.5,0.2-0.5,0.5v4C82,19.8,82.2,20,82.5,20z
	 M88,16c0.6,0,1,0.4,1,1v1c0,0.6-0.4,1-1,1h-5v-3H88z"/>
<path fill="#1F212B" d="M63,34c0.6,0,1-0.4,1-1v-7.4c0-3.7,2.9-6.8,6.6-7L82.1,18c0.6,0,1-0.5,0.9-1.1s-0.5-1-1.1-0.9l-11.4,0.6
	c-4.8,0.3-8.5,4.2-8.5,9V33C62,33.6,62.4,34,63,34z"/>
<path fill="#1F212B" d="M82.8,20.2c-2.1,1-3.5,3-3.8,5.4L78,33h-2l1-7.7c0.4-3,2.2-5.6,4.9-6.9l0.7-0.3C82.7,18,82.8,18,83,18v1h1v1
	h-0.8L82.8,20.2z"/>
<circle fill="#FEF6AA" cx="30.5" cy="73.5" r="14.5"/>
<path fill="#F9E65C" d="M39.5,73.5c0,5-4,9-9,9s-9-4-9-9s4-9,9-9S39.5,68.5,39.5,73.5z"/>
<path fill="#1F212B" d="M30.5,89C39,89,46,82,46,73.5S39,58,30.5,58S15,65,15,73.5S22,89,30.5,89z M30.5,60C37.9,60,44,66.1,44,73.5
	S37.9,87,30.5,87S17,80.9,17,73.5S23.1,60,30.5,60z"/>
<path fill="#1F212B" d="M30.5,83c5.2,0,9.5-4.3,9.5-9.5S35.7,64,30.5,64S21,68.3,21,73.5S25.3,83,30.5,83z M30.5,65
	c4.7,0,8.5,3.8,8.5,8.5S35.2,82,30.5,82S22,78.2,22,73.5S25.8,65,30.5,65z"/>
</svg>
