<svg xmlns="http://www.w3.org/2000/svg" x="0" y="0" viewBox="0 0 128 128"><path fill="#fff" d="M19,24h90.3c4.8,0,8.2,4.7,6.6,9.2l-13.7,41.2c-1.9,5.7-7.3,9.6-13.3,9.6H19V24z"/><circle cx="26" cy="117" r="7" fill="#fff"/><circle cx="76" cy="117" r="7" fill="#fff"/><path fill="#444b54" d="M76,107c-5.5,0-10,4.5-10,10s4.5,10,10,10s10-4.5,10-10S81.5,107,76,107z M76,121c-2.2,0-4-1.8-4-4s1.8-4,4-4 s4,1.8,4,4S78.2,121,76,121z"/><path fill="#444b54" d="M117.4,25.2c-1.9-2.6-4.9-4.2-8.1-4.2H22v-7c0-1.7-1.3-3-3-3H9c-1.7,0-3,1.3-3,3s1.3,3,3,3h7v74 c0,5.5,4.5,10,10,10h50c1.7,0,3-1.3,3-3s-1.3-3-3-3H26c-2.2,0-4-1.8-4-4V27h87.3c1.3,0,2.5,0.6,3.2,1.7c0.8,1.1,1,2.4,0.5,3.6 L99.3,73.5C97.8,78,93.7,81,88.9,81H33c-1.7,0-3,1.3-3,3s1.3,3,3,3h55.9c7.3,0,13.8-4.7,16.1-11.6l13.7-41.2 C119.8,31.1,119.3,27.8,117.4,25.2z"/><path fill="#444b54" d="M26,107c-5.5,0-10,4.5-10,10s4.5,10,10,10s10-4.5,10-10S31.5,107,26,107z M26,121c-2.2,0-4-1.8-4-4s1.8-4,4-4 s4,1.8,4,4S28.2,121,26,121z"/></svg>