<svg xmlns="http://www.w3.org/2000/svg" viewBox="0 0 100 100"><path fill="#8f9eb6" d="M40,85c-2.757,0-5-2.243-5-5s2.243-5,5-5s5,2.243,5,5S42.757,85,40,85z"/><path fill="#8f9eb6" d="M68,85c-2.757,0-5-2.243-5-5s2.243-5,5-5s5,2.243,5,5S70.757,85,68,85z"/><path fill="#fef6aa" d="M38.5,73.5v7c0,0,6,0,6-7"/><path fill="#fef6aa" d="M66.5,73.5v7c0,0,6,0,6-7"/><path fill="#1f212b" d="M75,74H31c-0.553,0-1-0.448-1-1v-1.544c0-4.201,2.857-7.805,6.947-8.763c0.543-0.125,1.076,0.208,1.202,0.746s-0.208,1.076-0.745,1.202C34.222,65.386,32,68.188,32,71.456V72h43c0.553,0,1,0.448,1,1S75.553,74,75,74z"/><path fill="#1f212b" d="M38.5,81c-0.276,0-0.5-0.224-0.5-0.5v-7c0-0.276,0.224-0.5,0.5-0.5s0.5,0.224,0.5,0.5v6.46c1.364-0.177,5-1.148,5-6.46c0-0.276,0.224-0.5,0.5-0.5s0.5,0.224,0.5,0.5C45,80.914,38.565,81,38.5,81z"/><path fill="#1f212b" d="M40,85c-2.757,0-5-2.243-5-5c0-2.1,1.339-3.987,3.332-4.696c0.261-0.094,0.546,0.043,0.639,0.304c0.093,0.26-0.043,0.546-0.303,0.639C37.072,76.814,36,78.322,36,80c0,2.206,1.794,4,4,4s4-1.794,4-4c0-0.833-0.264-1.639-0.762-2.33c-0.162-0.224-0.111-0.537,0.113-0.698c0.222-0.161,0.535-0.111,0.697,0.113C44.671,77.948,45,78.956,45,80C45,82.757,42.757,85,40,85z"/><path fill="#1f212b" d="M66.5,81c-0.276,0-0.5-0.224-0.5-0.5v-7c0-0.276,0.224-0.5,0.5-0.5s0.5,0.224,0.5,0.5v6.46c1.364-0.177,5-1.148,5-6.46c0-0.276,0.224-0.5,0.5-0.5s0.5,0.224,0.5,0.5C73,80.914,66.565,81,66.5,81z"/><path fill="#1f212b" d="M68,85c-2.757,0-5-2.243-5-5c0-2.1,1.339-3.987,3.332-4.696c0.261-0.094,0.547,0.043,0.639,0.304c0.093,0.26-0.043,0.546-0.303,0.639C65.072,76.814,64,78.322,64,80c0,2.206,1.794,4,4,4s4-1.794,4-4c0-0.833-0.264-1.639-0.762-2.33c-0.162-0.224-0.111-0.537,0.113-0.698c0.222-0.161,0.535-0.111,0.697,0.113C72.671,77.948,73,78.956,73,80C73,82.757,70.757,85,68,85z"/><polygon fill="#a0d2a1" points="78,61 32,64 28,33 84,33"/><path fill="#1f212b" d="M31.999,65c-0.499,0-0.926-0.371-0.991-0.872l-4-31c-0.036-0.285,0.052-0.572,0.241-0.788S27.713,32,28,32h56c0.302,0,0.588,0.136,0.777,0.371c0.19,0.235,0.264,0.543,0.2,0.838l-6,28c-0.094,0.438-0.466,0.759-0.912,0.789l-46,3C32.043,65,32.021,65,31.999,65z M29.138,34l3.734,28.941l44.309-2.89L82.763,34H29.138z"/><path fill="#1f212b" d="M36.5,41h-4c-0.276,0-0.5-0.224-0.5-0.5s0.224-0.5,0.5-0.5h4c0.276,0,0.5,0.224,0.5,0.5S36.776,41,36.5,41z"/><path fill="#1f212b" d="M82.371,41H39.5c-0.276,0-0.5-0.224-0.5-0.5s0.224-0.5,0.5-0.5h42.871c0.276,0,0.5,0.224,0.5,0.5S82.647,41,82.371,41z"/><path fill="#1f212b" d="M81.307,46H29.62c-0.276,0-0.5-0.224-0.5-0.5s0.224-0.5,0.5-0.5h51.687c0.276,0,0.5,0.224,0.5,0.5S81.583,46,81.307,46z"/><path fill="#1f212b" d="M80.232,51H30.258c-0.276,0-0.5-0.224-0.5-0.5s0.224-0.5,0.5-0.5h49.975c0.276,0,0.5,0.224,0.5,0.5S80.509,51,80.232,51z"/><path fill="#1f212b" d="M65.5,57H31.035c-0.276,0-0.5-0.224-0.5-0.5s0.224-0.5,0.5-0.5H65.5c0.276,0,0.5,0.224,0.5,0.5S65.776,57,65.5,57z"/><path fill="#8f9eb6" d="M22.5,19.5H17c-0.828,0-1.5-0.672-1.5-1.5v-1c0-0.828,0.672-1.5,1.5-1.5h5.5V19.5z"/><path fill="#1f212b" d="M22.5,20H17c-1.103,0-2-0.897-2-2v-1c0-1.103,0.897-2,2-2h5.5c0.276,0,0.5,0.224,0.5,0.5v4C23,19.776,22.776,20,22.5,20z M17,16c-0.552,0-1,0.449-1,1v1c0,0.551,0.448,1,1,1h5v-3H17z"/><path fill="#1f212b" d="M42,34c-0.553,0-1-0.448-1-1v-7.41c0-3.724-2.913-6.794-6.632-6.99l-11.421-0.601c-0.552-0.029-0.975-0.5-0.946-1.051c0.029-0.551,0.483-0.985,1.052-0.946l11.421,0.601C39.255,16.854,43,20.802,43,25.59V33C43,33.552,42.553,34,42,34z"/><path fill="#1f212b" d="M22.224,20.23c2.088,1.044,3.513,3.049,3.812,5.365L26.992,33h2.016l-0.989-7.661c-0.384-2.977-2.216-5.556-4.901-6.898l-0.671-0.336C22.309,18.036,22.155,18,22,18v1h-1v1h0.764L22.224,20.23z"/><circle cx="74.5" cy="73.5" r="14.5" fill="#fef6aa"/><path fill="#f9e65c" d="M65.5,73.5c0,4.971,4.029,9,9,9s9-4.029,9-9s-4.029-9-9-9S65.5,68.529,65.5,73.5z"/><path fill="#1f212b" d="M74.5,89C65.953,89,59,82.047,59,73.5S65.953,58,74.5,58S90,64.953,90,73.5S83.047,89,74.5,89z M74.5,60C67.056,60,61,66.056,61,73.5S67.056,87,74.5,87S88,80.944,88,73.5S81.944,60,74.5,60z"/><path fill="#1f212b" d="M74.5,83c-5.238,0-9.5-4.262-9.5-9.5s4.262-9.5,9.5-9.5s9.5,4.262,9.5,9.5S79.738,83,74.5,83z M74.5,65c-4.687,0-8.5,3.813-8.5,8.5s3.813,8.5,8.5,8.5s8.5-3.813,8.5-8.5S79.187,65,74.5,65z"/></svg>