<svg xmlns="http://www.w3.org/2000/svg" viewBox="0 0 64 64"><linearGradient id="qQ6zNn67Ow7mBz0AJ1ucUa" x1="-163" x2="-163" y1="-540.333" y2="-501.83" gradientTransform="matrix(-1 0 0 1 -131 551)" gradientUnits="userSpaceOnUse" spreadMethod="reflect"><stop offset="0" stop-color="#1a6dff"/><stop offset="1" stop-color="#c822ff"/></linearGradient><path fill="url(#qQ6zNn67Ow7mBz0AJ1ucUa)" d="M32,12c0.984,0,1.908,0.444,2.535,1.219l23.707,29.289c0.831,1.026,0.992,2.409,0.421,3.607 C58.108,47.277,56.977,48,55.708,48H8.292c-1.269,0-2.4-0.723-2.955-1.885c-0.571-1.198-0.41-2.581,0.421-3.607l23.707-29.289 C30.092,12.444,31.016,12,32,12z M32.98,14.477c-0.498-0.613-1.463-0.613-1.961,0L7.312,43.766c-0.347,0.429-0.41,0.984-0.171,1.488 C7.365,45.721,7.795,46,8.292,46h47.416c0.497,0,0.927-0.279,1.15-0.746c0.239-0.504,0.176-1.06-0.171-1.488L32.98,14.477z"/><linearGradient id="qQ6zNn67Ow7mBz0AJ1ucUb" x1="-163" x2="-163" y1="-530.514" y2="-507.645" gradientTransform="matrix(-1 0 0 1 -131 551)" gradientUnits="userSpaceOnUse" spreadMethod="reflect"><stop offset="0" stop-color="#6dc7ff"/><stop offset="1" stop-color="#e6abff"/></linearGradient><path fill="url(#qQ6zNn67Ow7mBz0AJ1ucUb)" d="M32.888,21.451L47.73,40.07c0.628,0.789,0.092,1.93-0.888,1.93H17.158 c-0.98,0-1.515-1.141-0.888-1.93l14.842-18.649C31.574,20.841,32.426,20.869,32.888,21.451z"/></svg>