<svg xmlns="http://www.w3.org/2000/svg" viewBox="0 0 100 100"><path fill="#565fa1" d="M68.5,35c0-1.184-0.592-2.227-1.492-2.86c0.309-0.472,0.492-1.034,0.492-1.64c0-1.446-1.023-2.652-2.385-2.936C65.353,27.092,65.5,26.565,65.5,26c0-1.781-1.335-3.234-3.055-3.455C62.473,22.366,62.5,22.187,62.5,22c0-1.933-1.567-3.5-3.5-3.5c-0.275,0-0.539,0.039-0.796,0.099C57.663,17.365,56.434,16.5,55,16.5c-0.392,0-0.763,0.079-1.115,0.198C53.337,15.975,52.477,15.5,51.5,15.5c-0.772,0-1.468,0.3-2,0.779c-0.532-0.479-1.228-0.779-2-0.779c-0.977,0-1.837,0.475-2.385,1.198C44.763,16.579,44.392,16.5,44,16.5c-1.434,0-2.663,0.865-3.204,2.099C40.539,18.539,40.275,18.5,40,18.5c-1.933,0-3.5,1.567-3.5,3.5c0,0.187,0.027,0.366,0.055,0.545C34.835,22.766,33.5,24.219,33.5,26c0,0.565,0.147,1.092,0.385,1.564c-1.362,0.284-2.385,1.49-2.385,2.936c0,0.606,0.183,1.168,0.492,1.64c-0.9,0.633-1.492,1.676-1.492,2.86c0,1.118,0.534,2.102,1.35,2.743C31.633,38.114,31.5,38.54,31.5,39c0,1.381,1.119,2.5,2.5,2.5c0.815,0,30.185,0,31,0c1.381,0,2.5-1.119,2.5-2.5c0-0.46-0.133-0.886-0.35-1.257C67.966,37.102,68.5,36.118,68.5,35z"/><path fill="#ccac94" d="M68,73c-4.325-1.622-7.188-2.659-8.907-3.27c-0.286-0.102-0.54-0.191-0.764-0.27C57.528,69.178,57,68.425,57,67.576v-3.034c4.442-2.889,8-7.543,8-9.542c0-1,0-4,0-4c2,0,2.381-1.898,3-4c0.57-1.935,1-4,1-5c0-1.875-5.5-2.5-5.5-2.5h-0.004c-0.031-1.75-0.325-7.907-2.871-13c0,0-4.125-2-10.625-2s-10.625,2-10.625,2c-2.553,5.107-2.932,11.284-2.989,13.014C35.633,39.611,31,40.277,31,42c0,1,0.43,3.065,1,5c0.619,2.102,1,4,3,4c0,0,0,3,0,4c0,1.999,3.558,6.653,8,9.542v3.034c0,0.849-0.528,1.602-1.329,1.884c-0.224,0.079-0.478,0.169-0.764,0.27C39.188,70.341,36.325,71.378,32,73c-8,3-8,11-8,11h52C76,84,76,76,68,73z"/><path fill="#fed5b3" d="M76,84H24c0,0,0-8,8-11c4.32-1.62,7.19-2.66,8.91-3.27c0.28-0.1,0.54-0.19,0.76-0.27c0.66-0.23,1.14-0.79,1.28-1.45C44.46,68.5,46.8,70,50,70c3.21,0,5.54-1.49,7.05-1.98c0.15,0.66,0.62,1.21,1.28,1.44c0.22,0.08,0.48,0.17,0.76,0.27c1.72,0.61,4.59,1.65,8.91,3.27C76,76,76,84,76,84z"/><rect width="5" height="11.5" x="47.5" y="72.5" fill="#fcba7f"/><path fill="#1f212b" d="M64,40.009l-1-0.017c0.001-0.073,0.084-7.319-2.744-13.11C59.464,26.537,55.616,25,50,25s-9.464,1.537-10.256,1.882C36.911,32.677,36.875,39.927,36.875,40h-1c0-0.312,0.035-7.688,3.053-13.724c0.049-0.099,0.13-0.178,0.229-0.227C39.33,25.967,43.46,24,50,24s10.67,1.967,10.843,2.05c0.099,0.049,0.18,0.128,0.229,0.227C64.092,32.316,64.005,39.697,64,40.009z"/><path fill="#1f212b" d="M50,55c-1.977,0-2.863-1.151-2.9-1.2c-0.166-0.221-0.121-0.534,0.1-0.7c0.221-0.164,0.531-0.12,0.697,0.097C47.93,53.237,48.555,54,50,54c1.454,0,2.078-0.771,2.104-0.805c0.169-0.215,0.481-0.257,0.699-0.09c0.217,0.167,0.262,0.476,0.097,0.694C52.863,53.849,51.977,55,50,55z"/><path fill="#1f212b" d="M50,67c-2.106,0-4.527-0.85-7-2.458l0.545-0.838C45.855,65.206,48.087,66,50,66s4.145-0.794,6.455-2.296L57,64.542C54.527,66.15,52.106,67,50,67z"/><path fill="#1f212b" d="M76,85H24c-0.552,0-1-0.447-1-1c0-0.087,0.099-8.73,8.649-11.937c4.504-1.689,7.341-2.714,8.927-3.275l0.751-0.268c0.333-0.116,0.575-0.39,0.645-0.719C41.991,67.711,42,67.643,42,67.58v-2.506c-4.242-2.913-8-7.61-8-10.074v-3.131c-1.781-0.508-2.329-2.404-2.82-4.106l-0.139-0.479C30.561,45.657,30,43.298,30,42c0-2.503,4.467-3.277,6.388-3.494l0.224,1.988c-2.372,0.269-4.463,1.051-4.614,1.519c0.002,0.839,0.405,2.822,0.961,4.704l0.143,0.491C33.726,49.371,34.051,50,35,50c0.552,0,1,0.447,1,1v4c0,1.491,3.24,5.899,7.545,8.702C43.829,63.887,44,64.202,44,64.54v3.04c0,0.206-0.023,0.408-0.072,0.639c-0.214,1.009-0.954,1.847-1.93,2.186l-0.75,0.268c-1.583,0.561-4.407,1.58-8.897,3.265c-5.639,2.114-6.953,6.963-7.259,9.063h49.823c-0.29-2.102-1.576-6.93-7.267-9.063c-4.49-1.685-7.314-2.704-8.893-3.264l-0.768-0.273c-0.961-0.334-1.682-1.143-1.913-2.158C56.024,68.005,56,67.787,56,67.58v-3.04c0-0.338,0.171-0.653,0.455-0.838C60.76,60.899,64,56.491,64,55v-4c0-0.553,0.448-1,1-1c0.949,0,1.274-0.629,1.898-2.792l0.143-0.491C67.597,44.835,68,42.852,68,42c-0.149-0.457-2.241-1.239-4.612-1.506l0.224-1.988C65.533,38.723,70,39.497,70,42c0,1.298-0.561,3.657-1.041,5.283l-0.139,0.479c-0.491,1.702-1.039,3.599-2.82,4.106V55c0,2.464-3.758,7.161-8,10.074v2.506c0,0.066,0.009,0.145,0.028,0.23c0.074,0.325,0.311,0.594,0.63,0.705l0.77,0.273c1.582,0.561,4.419,1.585,8.923,3.274C76.901,75.27,77,83.913,77,84C77,84.553,76.552,85,76,85z"/><path fill="#1f212b" d="M31.772,40.995C31.274,40.439,31,39.73,31,39c0-0.391,0.077-0.771,0.23-1.134C30.444,37.112,30,36.088,30,35c0-1.145,0.497-2.23,1.347-2.986C31.119,31.542,31,31.026,31,30.5c0-1.445,0.9-2.731,2.209-3.253C33.07,26.839,33,26.422,33,26c0-1.831,1.261-3.41,3.004-3.857C36.001,22.095,36,22.048,36,22c0-2.206,1.794-4,4-4c0.169,0,0.34,0.013,0.518,0.038c0.853-1.515,2.567-2.394,4.425-1.913c1.146-1.242,3.16-1.469,4.557-0.485c1.396-0.983,3.412-0.757,4.557,0.485c1.857-0.481,3.572,0.398,4.425,1.913C58.66,18.013,58.831,18,59,18c2.206,0,4,1.794,4,4c0,0.048-0.001,0.095-0.004,0.143C64.739,22.59,66,24.169,66,26c0,0.422-0.07,0.839-0.209,1.247C67.1,27.769,68,29.055,68,30.5c0,0.526-0.119,1.042-0.347,1.514C68.503,32.77,69,33.855,69,35c0,1.088-0.444,2.112-1.23,2.866C67.923,38.229,68,38.609,68,39c0,0.562-0.162,1.113-0.468,1.598l-0.845-0.535C66.892,39.739,67,39.371,67,39c0-0.348-0.095-0.686-0.282-1.004c-0.127-0.216-0.074-0.492,0.123-0.646C67.578,36.771,68,35.915,68,35c0-0.971-0.479-1.888-1.28-2.451c-0.221-0.155-0.278-0.458-0.13-0.684C66.858,31.456,67,30.983,67,30.5c0-1.177-0.835-2.206-1.987-2.446c-0.152-0.031-0.281-0.132-0.348-0.272c-0.068-0.14-0.066-0.303,0.004-0.441C64.889,26.903,65,26.453,65,26c0-1.495-1.125-2.768-2.618-2.959c-0.134-0.018-0.255-0.088-0.336-0.195c-0.081-0.108-0.115-0.244-0.094-0.378C61.975,22.314,62,22.16,62,22c0-1.654-1.346-3-3-3c-0.212,0-0.435,0.028-0.681,0.086c-0.234,0.062-0.476-0.064-0.573-0.286C57.268,17.707,56.19,17,55,17c-0.3,0-0.613,0.057-0.955,0.172c-0.206,0.066-0.429-0.001-0.559-0.172c-0.855-1.132-2.588-1.31-3.651-0.35c-0.19,0.17-0.479,0.17-0.669,0c-1.063-0.959-2.797-0.782-3.651,0.35c-0.13,0.171-0.355,0.239-0.559,0.172C44.613,17.057,44.3,17,44,17c-1.19,0-2.268,0.707-2.746,1.8c-0.097,0.222-0.336,0.348-0.573,0.286C40.435,19.028,40.212,19,40,19c-1.654,0-3,1.346-3,3c0,0.16,0.025,0.314,0.049,0.468c0.021,0.134-0.013,0.27-0.094,0.378c-0.081,0.107-0.203,0.178-0.336,0.195C35.125,23.232,34,24.505,34,26c0,0.453,0.111,0.903,0.331,1.34c0.07,0.139,0.072,0.302,0.004,0.441c-0.067,0.141-0.196,0.241-0.348,0.272C32.835,28.294,32,29.323,32,30.5c0,0.483,0.142,0.956,0.41,1.365c0.148,0.226,0.09,0.528-0.13,0.684C31.479,33.112,31,34.029,31,35c0,0.915,0.422,1.771,1.159,2.35c0.197,0.154,0.25,0.431,0.123,0.646C32.095,38.314,32,38.652,32,39c0,0.484,0.184,0.955,0.517,1.327L31.772,40.995z"/><path fill="#1f212b" d="M47.968,43.935c-0.186,2.191-1.176,4.845-4.832,5.061C37.979,48.988,37,46.882,37,43v-1.82c0-1.023,0.769-1.878,1.786-1.991C39.801,39.078,40.899,39,42,39c2.07,0,4.65,0.465,5.569,1.483C47.727,40.921,48.113,42.206,47.968,43.935z M48.445,39.973C47.259,38.432,44,38,42,38c-3.996,0-7.985,0.993-8,0.993c0,0,0,0,0,0l0.325,1.929C35.741,40.573,36,42,36,43c0,4,1,6.996,7.163,6.996c4.549-0.252,5.613-3.765,5.801-5.977C49.167,41.608,48.444,39.981,48.445,39.973z"/><path fill="#1f212b" d="M52,43.125c0,0-0.5-1.125-2-1.125s-2,1-2,1v-2h4V43.125z"/><path fill="#1f212b" d="M50,60c-4.696,0-7.724-2.23-7.85-2.325c-0.166-0.124-0.199-0.358-0.075-0.524c0.124-0.165,0.358-0.2,0.525-0.076C42.629,57.097,45.565,59,50,59s7.371-1.903,7.4-1.925c0.167-0.124,0.401-0.089,0.525,0.076c0.124,0.166,0.09,0.4-0.075,0.524C57.724,57.77,54.696,60,50,60z"/><path fill="#1f212b" d="M43,40c-0.799,0-1.482,0.589-1.803,1.435C41.378,41.178,41.662,41,42,41c0.552,0,1,0.448,1,1c0,0.552-0.448,1-1,1c-0.502,0-0.899-0.376-0.971-0.857C41.015,42.26,41,42.378,41,42.5c0,1.381,0.895,2.5,2,2.5s2-1.119,2-2.5C45,41.119,44.105,40,43,40z"/><path fill="#1f212b" d="M57,40c-0.799,0-1.482,0.589-1.803,1.435C55.378,41.178,55.662,41,56,41c0.552,0,1,0.448,1,1c0,0.552-0.448,1-1,1c-0.502,0-0.899-0.376-0.971-0.857C55.015,42.26,55,42.378,55,42.5c0,1.381,0.895,2.5,2,2.5s2-1.119,2-2.5C59,41.119,58.105,40,57,40z"/><path fill="#1f212b" d="M52.431,40.483C53.35,39.465,55.93,39,58,39c1.101,0,2.199,0.078,3.214,0.19C62.231,39.302,63,40.157,63,41.18V43c0,3.882-0.979,5.988-6.135,5.996c-3.656-0.216-4.646-2.87-4.832-5.061C51.887,42.206,52.273,40.921,52.431,40.483z M51.036,44.019c0.188,2.212,1.251,5.724,5.801,5.977C63,49.996,64,47,64,43c0-1,0.259-2.427,1.675-2.078L66,38.993c0,0,0,0,0,0c-0.015,0-4.004-0.993-8-0.993c-2,0-5.259,0.432-6.445,1.973C51.556,39.981,50.833,41.608,51.036,44.019z"/><path fill="#1f212b" d="M60.314,35.751L61,34.441c-1.277-0.298-2.64-0.443-4-0.441c-1.73,0.003-3.456,0.247-5,0.723L52.865,36c1.268-0.417,2.7-0.622,4.135-0.625C58.128,35.372,59.259,35.491,60.314,35.751z"/><path fill="#1f212b" d="M43,35.375c1.435,0.003,2.867,0.208,4.135,0.625L48,34.723c-1.544-0.476-3.27-0.719-5-0.723c-1.36-0.003-2.723,0.143-4,0.441l0.686,1.31C40.741,35.491,41.872,35.372,43,35.375z"/><path fill="#1f212b" d="M48,41h4v2c0,0-0.5-1-2-1s-2,1.125-2,1.125V41z"/><path fill="#78a2d2" d="M50,72.704c0,0-1.685,2.618-7.139,2.795c-0.739,0.024-1.361-0.613-1.361-1.41v-4.179c0-0.797,0.622-1.434,1.361-1.41C48.315,68.678,50,71.296,50,71.296V72.704z"/><path fill="#1f212b" d="M42.819,76c-0.458,0-0.893-0.179-1.232-0.507C41.214,75.132,41,74.621,41,74.09v-4.18c0-0.531,0.214-1.042,0.587-1.403c0.354-0.342,0.799-0.515,1.291-0.506c5.65,0.184,7.468,2.908,7.542,3.024c0.052,0.081,0.08,0.175,0.08,0.271v1.408c0,0.096-0.028,0.189-0.08,0.271c-0.075,0.116-1.892,2.841-7.543,3.024C42.858,75.999,42.839,76,42.819,76z M42.821,69c-0.197,0-0.388,0.08-0.539,0.226C42.103,69.399,42,69.648,42,69.91v4.18c0,0.262,0.103,0.511,0.282,0.685c0.157,0.151,0.353,0.246,0.563,0.225c4.462-0.145,6.27-1.997,6.655-2.463v-1.072c-0.381-0.462-2.188-2.318-6.655-2.463C42.837,69,42.829,69,42.821,69z"/><path fill="#78a2d2" d="M50,72.704c0,0,1.685,2.618,7.139,2.795c0.739,0.024,1.361-0.613,1.361-1.41v-4.179c0-0.797-0.622-1.434-1.361-1.41C51.686,68.678,50,71.296,50,71.296V72.704z"/><path fill="#1f212b" d="M57.18,76c-0.019,0-0.039-0.001-0.058-0.001c-5.65-0.184-7.468-2.908-7.542-3.024c-0.052-0.08-0.08-0.175-0.08-0.271v-1.408c0-0.096,0.028-0.19,0.08-0.271c0.075-0.116,1.893-2.841,7.543-3.024c0.481,0.011,0.937,0.163,1.291,0.506C58.786,68.868,59,69.379,59,69.91v4.18c0,0.531-0.214,1.042-0.587,1.403C58.074,75.821,57.638,76,57.18,76z M50.5,72.536c0.385,0.466,2.193,2.318,6.655,2.463c0.21,0.031,0.406-0.072,0.563-0.225C57.897,74.601,58,74.352,58,74.09v-4.18c0-0.262-0.103-0.511-0.282-0.685c-0.157-0.151-0.355-0.255-0.563-0.225c-4.505,0.146-6.279,1.994-6.655,2.46V72.536z"/><path fill="#c7dff1" d="M50.5,74.5h-1c-1.105,0-2-0.895-2-2v-1c0-1.105,0.895-2,2-2h1c1.105,0,2,0.895,2,2v1C52.5,73.605,51.605,74.5,50.5,74.5z"/><path fill="#1f212b" d="M50.5,75h-1c-1.378,0-2.5-1.121-2.5-2.5v-1c0-1.379,1.122-2.5,2.5-2.5h1c1.378,0,2.5,1.121,2.5,2.5v1C53,73.879,51.878,75,50.5,75z M49.5,70c-0.827,0-1.5,0.673-1.5,1.5v1c0,0.827,0.673,1.5,1.5,1.5h1c0.827,0,1.5-0.673,1.5-1.5v-1c0-0.827-0.673-1.5-1.5-1.5H49.5z"/><rect width="1" height="9" x="52" y="74.5" fill="#1f212b"/><rect width="1" height="9" x="47" y="74.5" fill="#1f212b"/><rect width="8" height="3" x="58.5" y="80.5" fill="#78a2d2"/><path fill="#1f212b" d="M66.5,84h-8c-0.276,0-0.5-0.224-0.5-0.5v-3c0-0.276,0.224-0.5,0.5-0.5h8c0.276,0,0.5,0.224,0.5,0.5v3C67,83.776,66.776,84,66.5,84z M59,83h7v-2h-7V83z"/></svg>