<svg xmlns="http://www.w3.org/2000/svg" width="512" height="512" viewBox="0 0 512 512"><path fill="#D6E5E5" d="M286.6 397.8c-.1.6-.3 1.3-.7 1.9-2 3.2-3.3 6.7-4.7 10.1 3-1.2 6.5-1.6 9.8-1.2C289.2 405.2 287.7 401.6 286.6 397.8zM263 395.9c-6.1-1-12.1-3.4-18.3-3-.4 0-.7 0-1 0-2.3 4.7-5.9 8.9-10.6 12.5.4.4.7 1 1 1.6 2.3 5.2 5 10.2 7.8 15.2 2.2 4 5.6 8.4 6.8 12.8.7 2.4 1.7 4.7 3 6.8.1-.2.3-.5.4-.7 5.3-8.3 9.8-16.6 14.1-25.5 3-6.1 5.2-12.8 8.5-18.7C270.9 396.7 266.9 396.5 263 395.9z"/><path fill="#EF4754" d="M292.5,421.3c-0.7-1.7-3.8-2.4-5.9-1.8c-0.5,0.1-2.3,0.7-2.2,0.7c-0.3,0.1-1.7,1.3-1.2,0.7c-0.2,0.2-0.3,0.3-0.3,0.3c1.1,2.4,0.4,4.7-1,6.3C285.2,433.7,295.8,428.7,292.5,421.3z"/><path fill="#A37B57" d="M323.1,371.5c-0.9-4.5-1.1-8.8-1.1-13.2c-11.3,6.8-24.1,11.6-38,13.7c-14.2,2.1-28.5,1.3-42-2c1.4,4.1,2.1,8,2.1,11.5c5.7,0.1,11,1.7,16.6,2.8c6.9,1.4,14,1.4,21.1,1.4c12.5,0.1,24.7-0.4,36.2-5.5c0.3-0.4,0.7-0.9,1.2-1.2c0.8-0.7,1.8-1,2.7-1.4c0.9-0.3,1.9-0.4,2.9-0.2C324.1,375.6,323.5,373.6,323.1,371.5z"/><path fill="#D6E5E5" d="M333,394.6c-1.9-2-3.7-4.1-5.3-6.5c-0.4-0.6-0.8-1.2-1.1-1.8c-0.4,0.9-1,1.7-1.9,2.2c-8.8,4.5-17.7,6.8-27.1,7.7c2.9,8.6,8.3,16.3,11.8,24.6c1.8,4.3,3.3,11.1,6.4,15.5c3.7-6.5,6.2-14,9.4-20.7c1.5-3.2,3-6.4,4.3-9.7c0.6-1.6,1.3-3.2,1.6-4.8c0-0.1,0.2-2.5,0.5-1.3C331.2,397.7,331.8,395.9,333,394.6z"/><path fill="#A37B57" d="M363.4,140.1c-4-4.4-8.3-9.5-11.6-15c-6.8,5.3-14.7,8.6-23.6,8.5c-7.1-0.1-13.5-2.5-19-6.4c-4.9,11.5-18.1,19-30.5,20.2c-16.9,1.6-34.2-3.6-45.4-16.4c-11.1,5.1-23,8.7-35.3,8.3c-6.5-0.2-14.3-2.1-20.4-5.8c-2.2,5.5-5.1,10.7-8.7,15.6c-2.1,2.8-4.7,5.6-7.7,7.5c-1.2,0.8-2.5,1.6-3.9,2c-0.5,0.2-1.3,0.3-2.1,0.5c1.1,14.3,2.7,28.5,4.7,42.7c3.1,21.7,6,43.5,9.6,65.1c3,17.9,7.4,36.2,17.3,51.6c10.5,16.4,26.3,29.2,44.2,36.7c23.5,9.9,50.8,10.8,74.2,0.2c22.9-10.4,40.6-29.7,50.8-52.5c5.8-12.9,9.2-26.3,11.5-39.9c0-0.1,0-0.2,0-0.4v-1.3c0-1.1,0.3-2.1,0.7-2.9c1.5-10.2,2.5-20.6,3.4-31c2.3-25.4,3.8-50.9,5.2-76.4C371.6,149,366.7,143.9,363.4,140.1z M223.6,196.1c-4.5,3.6-11.5,2.9-15.6-1c-4.9-4.6-4.7-12.5-1.1-17.5c-2-0.1-4.1,0.1-6.2,0.6c-0.8,0.8-2,1.4-3.6,1.4H195c-6.2,0-9-9.3-2.3-11.1c12.8-3.6,30-3.4,34.2,12.3C228.3,186.2,228.4,192.3,223.6,196.1z M254.6,179.1c0.6-7.4,11.8-5.1,11.3,2.2c-1.2,15.2,1.4,30.2,1.3,45.3c-0.1,7.7-2.2,24.4,7.1,27.7c6.9,2.5,1.8,12.7-5.1,10.3c-13.2-4.7-13.5-22.2-13.4-33.8C255.8,213.4,253.2,196.3,254.6,179.1z M291.6,301.6c-6.6,4.4-14,9.6-22.4,8c-7.5-1.5-15.5-5.6-18.5-12.9c-2.9-6.8,8-10.6,10.8-3.8c1.5,3.6,8.7,6,12.3,5.4c4.2-0.7,7.9-3.9,11.4-6.2C291.3,288,297.7,297.5,291.6,301.6z M331.3,190.6c-9.8,5.3-19.7-5.6-17.5-15.3c-2,0.5-3.9,1.6-5.5,3.5c-4.8,5.6-13.4-1.9-8.6-7.6c7.8-9.1,20.4-10,30-3C337.1,173.6,341.3,185.2,331.3,190.6z"/><path fill="#EF4754" d="M394.3,328c-4.5-10.3-9.9-20.3-13.4-31.1c-0.2-0.5-0.3-1.1-0.5-1.6c0.1,11.2-0.6,22.4-3.2,33.3c-2.1,9.2-5.3,19-4.6,28.6c0.4,6.6,3.8,17.6,12.4,16.8c7.1-0.7,13.3-7.6,14.6-14.4C401.7,348.6,398.7,338.1,394.3,328z"/><path fill="#513620" d="M353.9,92.5c-4.5-6.8-11.7-8.1-18.8-10.7c-8.3-3-12.1-8.3-12.5-17.1c-0.4-7.5-3.7-12.4-10.7-15.5c-6.5-3-13.6-4.3-20.7-5.1c-7.8-0.8-15.9,4.8-20,11c-1.6,2.4-4.3,3-6.5,2.4c-1.6,2.7-5.2,4.1-8,1.2c-10.2-10.2-26.9-6.4-38.6-1.1c-7,3.2-14.4,7.7-17,15.4c-2.1,6.1-2.3,11.9,5,13.6c6.2,1.4,5.5,10-0.6,10.9c-7,1-14.1,4.3-19.8,8.6c-3.2,2.4-10.2,8.1-7.1,12.9c5.1,7.8,16.1,9.8,24.7,9.1c10-0.8,19.7-4.1,28.6-8.7c2.7-1.4,5.8-1.2,7.6,1.5c8.2,11.9,23.1,16.9,37.2,15.5c10-1,24-7.5,23.4-19.3c-0.3-6,6.6-7.4,10-3.5c12.1,13.8,31.9,10.2,41.7-4.3C355,104.6,357.3,97.7,353.9,92.5z"/><path fill="#513620" d="M480.9,244c0-9.5,0.3-21.1-5.4-29.3c-4.7-6.7-13.7-9.9-14.1-19.2c-0.5-9.3,10.1-15.3,11.3-24.3c1-8-0.1-16.4-3.2-23.9c-6.1-15.1-19.2-26-36.1-22.5c-4.2,0.9-7.1-4.5-5.4-7.9c5.4-10.5-0.3-23-8-30.8c-4.3-4.3-8.6-9.5-14-12.3c-5.7-3-11-1.8-17.2-1.7c-3,0.1-5.6-2-5.9-5.1c-0.8-9.4-4.8-17.8-13.6-22c-8.6-4.1-18.4-4.9-27.8-4.9c-3.1,0-5.6-1.9-5.9-5.1c-0.9-8.2-12.7-13.9-19.5-15.9c-6.8-2-18-4.3-21.4,4c-0.4,1-1,1.7-1.6,2.2c-0.1,2.6-0.5,5.2-1,7.8c8,0.3,16.7,2.4,23.7,5.7c8.2,3.8,16.1,10.4,17.5,19.8c0.6,3.8-0.8,10,3.3,11.9c4.4,2.1,9.2,2.8,13.6,4.9c8.5,4.1,16.4,12.1,16.5,22.1c0.1,7.1-2.4,13.9-6.6,19.5c2.3,4.8,6.2,9.5,9.5,13.5c2.3,2.8,4.8,5.6,7.7,7.8c1.1,0.8,2.1,1.7,3.4,2.2c4.9-2.3,9.6,3.5,7.4,7.5c-1.2,22.6-2.5,45.2-4.3,67.7c-1.2,14.2-2,28.5-4,42.7c1.1,0.5,2.1,1.6,2.6,3.2c3.7,12.9,6.7,26.2,11.6,38.8c4.7,11.8,11.6,22.9,15,35.2c3,10.7,4.4,23.5-1.2,33.6c-4.2,7.7-11.5,14.9-20.7,15.8c-9.8,0.9-18.7-5.3-22.5-14.3c-4.3-10.2-3-21.6-0.7-32.1c2.6-11.9,5.4-23.3,5.7-35.6c0-1.4,0-2.9,0-4.3c-8.3,20.8-21.2,39.8-38.3,53.4c-0.2,10.1-0.9,20,5,28.8c4.9,7.3,11.9,12.7,19.8,16.5c13.2,6.4,26.8,7.7,41.1,9.7c7.4,1,16.1,2.3,23.8,5.2c0.9-2.2,3-3.9,5.9-3.6c11.1,1,16.3-14.6,15.7-23.2c-0.5-5.9-2.3-10.2-5.8-14.9c-2.8-3.9-5.5-7.6-7.5-12c-1.4-3.1,1.4-7.3,4.8-7.3c12.3,0.2,26.7-11.8,29.2-23.8c0.8-3.7,0.6-7.7,0.6-11.5c-0.1-4,0.2-9.7-2.1-13.2c-3.6-5.6-9.1-9.1-11.7-15.5c-1.1-2.6,0.6-6.3,3.4-7c8-2.1,17-5.1,22.5-11.7C481.4,261.3,480.9,252.7,480.9,244z"/><path fill="#EF4754" d="M162.9,346.9c-1.9-9.9-3.6-19.6-3.6-29.7c0-8.9,0.6-17.7,1.4-26.6c-0.7,2.9-1.4,5.8-2.2,8.7c-2.9,10.8-6.8,21.2-10.6,31.7c-3.2,8.9-6.4,18.9-5.5,28.5c0.5,5.5,1.9,12.9,6.2,16.8c4.8,4.3,11.6-1.6,13.7-6.3C165.6,362.8,164.4,354.4,162.9,346.9z"/><path fill="#513620" d="M280.5,20.3c-3.9-3.3-9-5.3-14-6.3c-8.6-1.8-23-2.9-28.6,5.8c-2.1,3.2-5.4,3.8-8.6,1.7c-15.2-10.3-32.7-3.7-47,4.8c-7.1,4.2-12.4,9-16.2,16.4c-2.6,5.2-6.5,9.2-12.7,9.4c-3.8,0.1-7.8,0.2-11.5,0.8c-4,0.6-7.3,2.7-10.7,4.7C124,62,117,66.9,111.1,72.9c-9.8,10-20.7,26.5-16.3,41.3c1,3.3-1.1,7.1-4.8,7.3c-10.5,0.6-18.4,6.7-24.9,14.6c-6.5,7.8-12.2,16.3-16.5,25.5c-3.6,7.8-9.9,22.2-4.8,30.5c4.7,7.7,11.7,15.5,7.2,25.1c-3.8,8.1-12.4,12.4-16.1,20.6c-3.8,8.6-4.5,18.5-3.6,27.8c0.9,9,2.5,19,9.1,25.7c6.3,6.4,14.2,10.4,22.1,14.4c2.8,1.4,3.7,4.6,2.5,7.4c-5.5,13.1-13.7,25.6-9.7,40.4c3,11,11.3,21.5,23.2,22.5c5.3,0.4,11.3,1.2,14.1,6.3c3.1,5.4,0.2,9.8-0.3,15.3c-0.5,5.5,7.7,7.9,11.7,8.4c5.2,0.7,10.4,0.5,15.7,0.5c3.2,0,5.3,1.9,5.9,5.1c0.9,4.8,2.2,6.4,6.9,7.7c2,0.5,3.3,1.9,3.8,3.4c13.8-4.5,29.3-5.4,43.4-8.3c14.8-3.1,31.1-6.8,43.8-15.3c4.4-3,9.4-7.2,10.8-12.3c1.8-6.5-0.2-12.7-3.5-18.4c-0.4-0.6-0.6-1.2-0.7-1.8c-26.1-10.1-48.2-30.1-60-56.1c-0.2,5.8,0,11.6,0.5,17.4c1,10,4.2,19.7,4.5,29.7c0.2,9.5-1.8,18.9-9.2,25.3c-6.5,5.6-15,8.4-22.5,3.3c-14.8-10-13.4-34.1-9.1-48.8c3.6-12.3,8.9-24,12.3-36.3c3.6-13.2,6.2-26.6,8.8-40.1c0.2-1.2,0.7-2.1,1.4-2.8c-1.7-11.7-3.1-23.4-4.9-35c-3.4-22-6.4-44.1-7.9-66.2c-0.4-1.5,0-3.1,1.4-4.6c2-2.1,4.1-3,6.9-3.9c3.1-1,5.5-3.1,7.4-5.6c4.1-5.5,7.1-11.5,9.4-18c-0.5-0.8-0.9-1.7-1.2-2.7c-5.4-14.9,9.8-26.5,24-32.1c-2.5-3.4-3.7-7.8-3.1-12.9c1.3-11.1,8.2-20.4,17.7-25.9c16-9.2,40.2-15.6,55.7-2.3c4.5-6.4,11.1-12.1,18.7-14.6c-0.1-0.6-0.1-1.4,0-2.1C281.5,28.8,283.7,23.1,280.5,20.3z"/><path fill="#D6E5E5" d="M428,429.9c-5-6.1-13.8-8.5-21.2-10.1c-18.1-3.8-36.3-3.6-53.4-11.5c-3.8-1.7-7.5-3.8-11-6.1c-0.9,6.1-4.5,12.6-6.9,17.5c-4.6,9.5-8,20-14.4,28.4c-1.4,1.9-4.6,2.5-6.6,1.3c-6.6-3.8-9.8-10.8-12.5-17.7c-2.2,4.5-6.1,8.1-11.3,9.2c-8.8,2-16.5-2.9-19.4-10.6c-2.5,5.2-5.2,10.8-8.9,15.1c-2.2,2.6-3.4,6-6.7,7.7c-8.5,4.3-14-6.1-16.5-12.6c-4-10.3-10.6-19.5-15.1-29.6c-19,10.2-45.8,15-61.7,17.6c-10.9,1.8-45.2,5.2-37.1,23.2c5.2,11.6,19.3,20.3,30.4,25.6c12.1,5.8,25.2,9.5,38.5,11.2c15.8,2.1,31.4,4.6,47.3,5.8c16.3,1.3,32.6,1.8,48.9,1.6c30.7-0.4,62.5-2,91-14.7c16.2-7.2,36-15.5,46.3-30.7C431.9,444.5,433,436.1,428,429.9z"/><path d="M274.2 254.2c-9.3-3.3-7.1-20-7.1-27.7.1-15.1-2.6-30.1-1.3-45.3.6-7.3-10.7-9.6-11.3-2.2-1.4 17.3 1.2 34.4 1.1 51.7-.1 11.6.2 29.1 13.4 33.8C276 266.9 281.2 256.7 274.2 254.2zM329.6 168.1c-9.6-7-22.1-6.1-30 3-4.8 5.6 3.8 13.2 8.6 7.6 1.6-1.8 3.5-3 5.5-3.5-2.2 9.8 7.8 20.6 17.5 15.3C341.3 185.2 337.1 173.6 329.6 168.1zM226.8 180.8c-4.2-15.7-21.3-15.9-34.2-12.3-6.6 1.8-3.8 11.1 2.3 11.1h2.1c1.6 0 2.8-.5 3.6-1.4 2-.4 4.1-.7 6.2-.6-3.6 5-3.7 12.9 1.1 17.5 4.1 3.8 11.1 4.5 15.6 1C228.4 192.3 228.3 186.2 226.8 180.8zM285.2 292.1c-3.4 2.3-7.2 5.4-11.4 6.2-3.6.6-10.8-1.8-12.3-5.4-2.8-6.8-13.7-3.1-10.8 3.8 3.1 7.3 11 11.4 18.5 12.9 8.4 1.7 15.8-3.5 22.4-8C297.7 297.5 291.3 288 285.2 292.1z"/><path d="M488.9,217.7c-1.5-5-4.2-9.5-7.7-13.3c-1.4-1.6-9.7-6.7-8.9-9.2c1.7-4.7,5.8-8.6,8.3-12.9c2.7-4.6,3.1-10.1,3.3-15.3c0.5-9.5-2-19.3-6.1-27.8c-7.2-14.8-20.9-25.8-37.1-26.1c1.8-11.5-3-23.6-10.6-32.3c-5.3-6-11.2-11.7-17.9-16.1c-6.1-4-12.4-4-19.1-3.7c-2.1-10.4-7.5-19-17-24.7c-9-5.4-20.2-6.7-30.8-7c-3.9-10.6-16-17.3-26.2-20.6c-9.9-3.1-23.2-3.8-30.7,3.8c-4.5-4.6-11.8-7.2-17.6-8.8c-12.9-3.5-29.2-3-39,6.6c-6.4-3.4-13.1-5.3-20.7-5.4c-9.5-0.1-18.5,4.1-27,8.1c-8.1,3.8-15.7,8.6-21.8,15.2c-2.9,3.2-4.7,6.8-6.6,10.6c-1.6,3.1-4.6,2.4-7.8,2.6c-4.1,0.3-8.1,0.5-12.1,1.6c-4.3,1.2-8.4,4-12.2,6.3c-8.5,5.2-16.3,11.4-23.1,18.7c-10.4,11.1-19,27.6-17.4,43.3c-19.3,4.4-32.5,23.2-41.6,39.8c-5.6,10.3-9.7,21.7-10.1,33.5c-0.2,5.4,1.3,10.2,4.1,14.8c2.6,4.2,7.6,8.6,5.2,13.9c-1.8,3.9-6.2,6.9-9.2,10c-3.6,3.8-6.2,8.5-7.9,13.4c-3.8,10.3-4.1,21.7-2.9,32.6c1.2,10.3,3.9,20.4,10.8,28.4c5.9,6.8,13.6,11.4,21.6,15.5c-2.6,5.6-5.4,11.2-7.3,17.1c-2.5,7.9-3,16-1.3,24.2c2.9,14.2,12.2,25.1,25.3,31.1c2.4,1.1,5.4,1.1,8,1.3c1.8,0.2,5.7,0.2,5.6,1.5c-0.4,3.3-2,6.4-1.9,9.8c0.1,3.6,1.5,6.7,3.6,9.6c7,9.6,19.9,9.9,31,9.7c1.7,4.9,4.5,8.2,9,10.5c-5.6,3.7-10.1,8.9-11.6,15.7c-2.6,12.1,7.9,22.8,16.1,30c21.1,18.4,48.5,23.9,75.3,27.8c31.7,4.6,63.9,6.3,96,5.5c29.6-0.8,59.3-4,86.6-16.2c17.1-7.7,36.2-16.6,47.9-31.9c8.8-11.5,9.6-26.5-0.3-37.5c-0.8-0.9-1.7-1.8-2.7-2.6c10.4-2.7,17.5-12.7,20.2-23.2c1.9-7.2,1.1-16-1.8-22.8c-1.8-4.4-4.9-8-7.6-11.8c12.9-3.6,24.3-15.1,29.1-26.8c3.4-8.3,2.9-19.2,1.6-27.9c-0.7-4.8-2.4-9.2-5.6-13c-1.4-1.7-3.2-3.3-4.7-4.9c6.5-2.3,12.6-5.6,17.9-10.3c7.4-6.6,10.1-16.3,10.3-25.9C492,240.7,492.3,228.9,488.9,217.7z M291.2,44.1c7.1,0.7,14.2,2.1,20.7,5.1c6.9,3.2,10.3,8,10.7,15.5c0.4,8.8,4.2,14.1,12.5,17.1c7.1,2.6,14.3,3.9,18.8,10.7c3.4,5.2,1.1,12.1-2,16.8c-9.8,14.5-29.6,18.1-41.7,4.3c-3.5-3.9-10.4-2.5-10,3.5c0.6,11.9-13.4,18.4-23.4,19.3c-14.1,1.3-29-3.6-37.2-15.5c-1.9-2.7-4.9-2.9-7.6-1.5c-8.9,4.6-18.6,7.8-28.6,8.7c-8.6,0.7-19.6-1.4-24.7-9.1c-3.2-4.8,3.8-10.5,7.1-12.9c5.7-4.2,12.8-7.6,19.8-8.6c6.1-0.9,6.8-9.5,0.6-10.9c-7.3-1.6-7.1-7.5-5-13.6c2.6-7.6,10.1-12.2,17-15.4c11.7-5.3,28.4-9.1,38.6,1.1c2.8,2.8,6.4,1.4,8-1.2c2.3,0.6,4.9,0,6.5-2.4C275.3,48.8,283.5,43.3,291.2,44.1z M371.6,227.1c-0.9,10.4-1.9,20.8-3.4,31c-0.5,0.8-0.7,1.8-0.7,2.9v1.3c0,0.1,0,0.2,0,0.4c-2.3,13.6-5.6,27-11.5,39.9c-10.3,22.8-27.9,42.1-50.8,52.5c-23.5,10.6-50.7,9.8-74.2-0.2c-17.9-7.5-33.7-20.4-44.2-36.7c-9.9-15.4-14.3-33.8-17.3-51.6c-3.6-21.6-6.5-43.4-9.6-65.1c-2-14.2-3.6-28.4-4.7-42.7c0.8-0.2,1.6-0.4,2.1-0.5c1.4-0.4,2.7-1.2,3.9-2c3-1.9,5.6-4.7,7.7-7.5c3.6-4.8,6.4-10.1,8.7-15.6c6.2,3.8,14,5.6,20.4,5.8c12.3,0.5,24.2-3.1,35.3-8.3c11.1,12.8,28.4,18.1,45.4,16.4c12.4-1.2,25.6-8.7,30.5-20.2c5.5,3.9,11.9,6.3,19,6.4c8.9,0.1,16.8-3.2,23.6-8.5c3.2,5.5,7.6,10.6,11.6,15c3.3,3.7,8.2,8.8,13.5,10.7C375.5,176.3,373.9,201.7,371.6,227.1z M377.2,328.7c2.5-11,3.3-22.2,3.2-33.3c0.2,0.5,0.3,1.1,0.5,1.6c3.5,10.8,8.9,20.7,13.4,31.1c4.4,10.1,7.5,20.6,5.3,31.6c-1.4,6.8-7.5,13.7-14.6,14.4c-8.6,0.8-11.9-10.2-12.4-16.8C371.9,347.7,375.1,337.9,377.2,328.7z M331.8,399.8c-0.3-1.2-0.5,1.2-0.5,1.3c-0.4,1.7-1,3.3-1.6,4.8c-1.3,3.3-2.8,6.5-4.3,9.7c-3.2,6.6-5.7,14.1-9.4,20.7c-3.1-4.5-4.6-11.2-6.4-15.5c-3.6-8.3-9-16-11.8-24.6c9.3-0.9,18.3-3.2,27.1-7.7c0.9-0.5,1.5-1.3,1.9-2.2c0.4,0.6,0.7,1.2,1.1,1.8c1.5,2.3,3.3,4.5,5.3,6.5C331.8,395.9,331.2,397.7,331.8,399.8z M283,421.2c0,0,0.1-0.1,0.3-0.3c-0.5,0.6,0.9-0.6,1.2-0.7c-0.1,0.1,1.6-0.5,2.2-0.7c2.1-0.5,5.2,0.2,5.9,1.8c3.3,7.4-7.3,12.3-10.6,6.2C283.4,425.9,284,423.6,283,421.2z M281.2,409.9c1.4-3.5,2.7-6.9,4.7-10.1c0.4-0.7,0.6-1.3,0.7-1.9c1.1,3.8,2.6,7.4,4.4,10.9C287.7,408.3,284.2,408.7,281.2,409.9z M281.8,385.8c-6.7,0-13.4,0-19.9-1.4c-5.3-1.1-10.3-2.5-15.7-2.7c0-3.4-0.6-7-2-10.9c12.8,3.1,26.3,3.9,39.8,1.9c16.8-2.5,24.4-6,36-12.9c0,4.2,0.1,8.2,1,12.5c0.4,1.9,0.9,3.8,1.6,5.6c-0.9-0.2-1.9-0.1-2.8,0.2c-0.9,0.3-1.8,0.7-2.6,1.3c-0.4,0.4-0.8,0.8-1.1,1.2C305.2,385.5,293.7,385.9,281.8,385.8z M274.9,396.8c-3.3,5.9-5.5,12.6-8.5,18.7c-4.3,8.8-8.8,17.2-14.1,25.5c-0.1,0.2-0.3,0.4-0.4,0.7c-1.3-2.1-2.4-4.4-3-6.8c-1.3-4.4-4.6-8.8-6.8-12.8c-2.8-5-5.5-10-7.8-15.2c-0.3-0.6-0.6-1.1-1-1.6c4.6-3.6,8.3-7.7,10.6-12.5c0.3,0,0.7,0.1,1,0c6.2-0.3,12.2,2,18.3,3C266.9,396.5,270.9,396.7,274.9,396.8z M162.9,346.9c1.4,7.5,2.7,15.9-0.5,23.1c-2.1,4.7-8.8,10.7-13.7,6.3c-4.3-3.9-5.7-11.3-6.2-16.8c-0.9-9.6,2.3-19.5,5.5-28.5c3.8-10.5,7.7-20.9,10.6-31.7c0.8-2.9,1.5-5.8,2.2-8.7c-0.9,8.8-1.5,17.7-1.4,26.6C159.3,327.3,161.1,337,162.9,346.9z M119.9,406.5c-5.2,0-10.5,0.2-15.7-0.5c-4-0.6-12.2-2.9-11.7-8.4c0.5-5.5,3.4-9.9,0.3-15.3c-2.9-5.1-8.9-5.8-14.1-6.3c-12-1-20.3-11.5-23.2-22.5c-4-14.8,4.2-27.4,9.7-40.4c1.2-2.8,0.3-6-2.5-7.4c-7.9-4-15.8-8-22.1-14.4c-6.6-6.7-8.3-16.7-9.1-25.7c-0.9-9.3-0.3-19.2,3.6-27.8c3.7-8.2,12.3-12.5,16.1-20.6c4.5-9.6-2.5-17.4-7.2-25.1c-5.1-8.4,1.2-22.7,4.8-30.5c4.2-9.3,10-17.7,16.5-25.5c6.5-7.8,14.5-13.9,24.9-14.6c3.7-0.2,5.8-4,4.8-7.3c-4.4-14.7,6.6-31.2,16.3-41.3c5.9-6,12.9-10.9,20.1-15.3c3.4-2.1,6.7-4.1,10.7-4.7c3.8-0.6,7.7-0.7,11.5-0.8c6.2-0.2,10.1-4.2,12.7-9.4c3.8-7.4,9.1-12.2,16.2-16.4c14.3-8.6,31.8-15.1,47-4.8c3.2,2.1,6.5,1.6,8.6-1.7c5.6-8.7,20-7.5,28.6-5.8c5,1,10.1,3,14,6.3c3.2,2.7,1,8.5,0.4,12c-0.1,0.8-0.1,1.5,0,2.1c-7.6,2.5-14.2,8.2-18.7,14.6c-15.5-13.3-39.7-6.9-55.7,2.3c-9.5,5.5-16.5,14.8-17.7,25.9c-0.6,5,0.6,9.4,3.1,12.9c-14.3,5.6-29.4,17.2-24,32.1c0.3,0.9,0.8,1.8,1.2,2.7c-2.3,6.5-5.2,12.5-9.4,18c-1.9,2.6-4.4,4.7-7.4,5.6c-2.7,0.9-4.8,1.8-6.9,3.9c-1.4,1.5-1.7,3.1-1.4,4.6c1.5,22.2,4.5,44.2,7.9,66.2c1.8,11.6,3.2,23.3,4.9,35c-0.7,0.7-1.2,1.6-1.4,2.8c-2.6,13.4-5.2,26.9-8.8,40.1c-3.4,12.4-8.7,24.1-12.3,36.3c-4.3,14.7-5.7,38.8,9.1,48.8c7.6,5.1,16.1,2.3,22.5-3.3c7.4-6.5,9.5-15.9,9.2-25.3c-0.2-10-3.5-19.7-4.5-29.7c-0.6-5.8-0.7-11.6-0.5-17.4c11.9,26,34,46,60,56.1c0.1,0.6,0.3,1.2,0.7,1.8c3.3,5.7,5.3,11.9,3.5,18.4c-1.4,5.1-6.4,9.3-10.8,12.3c-12.7,8.6-29,12.3-43.8,15.3c-14.2,2.9-29.6,3.7-43.4,8.3c-0.6-1.6-1.8-2.9-3.8-3.4c-4.7-1.3-6-2.9-6.9-7.7C125.2,408.4,123.1,406.5,119.9,406.5z M427.7,450.7c-10.3,15.2-30.1,23.5-46.3,30.7c-28.5,12.7-60.3,14.3-91,14.7c-16.3,0.2-32.6-0.4-48.9-1.6c-15.9-1.2-31.5-3.7-47.3-5.8c-13.3-1.7-26.4-5.4-38.5-11.2c-11-5.3-25.1-14-30.4-25.6c-8.1-17.9,26.2-21.4,37.1-23.2c16-2.7,42.7-7.4,61.7-17.6c4.5,10.1,11.2,19.3,15.1,29.6c2.5,6.5,8,16.9,16.5,12.6c3.3-1.6,4.4-5,6.7-7.7c3.7-4.3,6.4-10,8.9-15.1c2.9,7.7,10.5,12.6,19.4,10.6c5.2-1.1,9.1-4.7,11.3-9.2c2.7,6.9,5.9,13.9,12.5,17.7c2,1.2,5.2,0.6,6.6-1.3c6.4-8.5,9.8-18.9,14.4-28.4c2.4-4.9,6-11.4,6.9-17.5c3.5,2.3,7.3,4.4,11,6.1c17.1,7.9,35.3,7.7,53.4,11.5c7.4,1.5,16.2,4,21.2,10.1C433,436.1,431.9,444.5,427.7,450.7z M475.6,268.4c-5.4,6.7-14.5,9.6-22.5,11.7c-2.8,0.7-4.5,4.4-3.4,7c2.7,6.3,8.2,9.9,11.7,15.5c2.3,3.6,2,9.2,2.1,13.2c0,3.8,0.2,7.8-0.6,11.5c-2.5,12.1-16.9,24-29.2,23.8c-3.4,0-6.2,4.2-4.8,7.3c2,4.4,4.6,8.2,7.5,12c3.5,4.7,5.3,9,5.8,14.9c0.7,8.5-4.6,24.1-15.7,23.2c-2.9-0.3-5,1.5-5.9,3.6c-7.7-2.9-16.4-4.2-23.8-5.2c-14.3-2-27.8-3.3-41.1-9.7c-7.9-3.8-14.9-9.2-19.8-16.5c-5.9-8.8-5.2-18.8-5-28.8c17.1-13.6,30.1-32.6,38.3-53.4c0,1.4,0,2.9,0,4.3c-0.3,12.2-3.1,23.7-5.7,35.6c-2.3,10.5-3.6,21.9,0.7,32.1c3.8,9,12.6,15.2,22.5,14.3c9.2-0.9,16.5-8.1,20.7-15.8c5.6-10.2,4.3-22.9,1.2-33.6c-3.5-12.3-10.4-23.4-15-35.2c-5-12.5-7.9-25.8-11.6-38.8c-0.5-1.6-1.4-2.7-2.6-3.2c2-14.2,2.9-28.6,4-42.7c1.8-22.5,3.1-45.1,4.3-67.7c2.2-4-2.5-9.8-7.4-7.5c-1.3-0.5-2.4-1.3-3.4-2.2c-2.9-2.3-5.3-5-7.7-7.8c-3.3-4-7.2-8.7-9.5-13.5c4.2-5.6,6.7-12.5,6.6-19.5c-0.1-10-8-18-16.5-22.1c-4.3-2.1-9.2-2.8-13.6-4.9c-4.1-1.9-2.7-8.1-3.3-11.9c-1.4-9.4-9.3-16.1-17.5-19.8c-7-3.2-15.7-5.4-23.7-5.7c0.5-2.6,0.9-5.2,1-7.8c0.6-0.5,1.2-1.2,1.6-2.2c3.4-8.2,14.7-6,21.4-4c6.8,2,18.6,7.7,19.5,15.9c0.3,3.2,2.8,5,5.9,5.1c9.4,0,19.2,0.8,27.8,4.9c8.8,4.2,12.8,12.6,13.6,22c0.3,3.1,2.9,5.1,5.9,5.1c6.2-0.2,11.5-1.4,17.2,1.7c5.4,2.8,9.8,8,14,12.3c7.7,7.7,13.4,20.2,8,30.8c-1.7,3.4,1.1,8.8,5.4,7.9c16.9-3.4,29.9,7.4,36.1,22.5c3,7.5,4.2,15.8,3.2,23.9c-1.2,9.1-11.8,15-11.3,24.3c0.5,9.3,9.4,12.5,14.1,19.2c5.7,8.2,5.4,19.8,5.4,29.3C480.9,252.7,481.4,261.3,475.6,268.4z"/></svg>